<svg xmlns="http://www.w3.org/2000/svg" viewBox="0 0 1600 1000" role="img" aria-label="Castelo a noite">
  <defs>
    <linearGradient id="sky" x1="0" y1="0" x2="0" y2="1">
      <stop offset="0%" stop-color="#13316f"/>
      <stop offset="45%" stop-color="#1b3e82"/>
      <stop offset="100%" stop-color="#0d1f48"/>
    </linearGradient>
    <radialGradient id="moonGlow" cx="50%" cy="18%" r="20%">
      <stop offset="0%" stop-color="#e8f3ff" stop-opacity="0.95"/>
      <stop offset="45%" stop-color="#c8dcff" stop-opacity="0.55"/>
      <stop offset="100%" stop-color="#9cb6ff" stop-opacity="0"/>
    </radialGradient>
    <linearGradient id="mountain" x1="0" y1="0" x2="0" y2="1">
      <stop offset="0%" stop-color="#28477f"/>
      <stop offset="100%" stop-color="#1a2c5e"/>
    </linearGradient>
    <linearGradient id="ground" x1="0" y1="0" x2="0" y2="1">
      <stop offset="0%" stop-color="#132954"/>
      <stop offset="100%" stop-color="#0a1836"/>
    </linearGradient>
  </defs>

  <rect width="1600" height="1000" fill="url(#sky)"/>
  <rect width="1600" height="1000" fill="url(#moonGlow)"/>

  <g fill="#dce9ff" opacity="0.6">
    <circle cx="142" cy="114" r="2"/>
    <circle cx="312" cy="82" r="1.5"/>
    <circle cx="498" cy="128" r="1.8"/>
    <circle cx="618" cy="66" r="1.6"/>
    <circle cx="792" cy="112" r="2"/>
    <circle cx="965" cy="76" r="1.6"/>
    <circle cx="1110" cy="132" r="1.6"/>
    <circle cx="1264" cy="96" r="2"/>
    <circle cx="1410" cy="142" r="1.6"/>
    <circle cx="1542" cy="102" r="1.5"/>
  </g>

  <circle cx="820" cy="182" r="92" fill="#d7e7ff" opacity="0.2"/>
  <circle cx="820" cy="182" r="52" fill="#f7fbff" opacity="0.76"/>

  <path d="M0,640 L210,500 L410,620 L590,470 L780,630 L940,520 L1160,640 L1360,500 L1600,645 L1600,1000 L0,1000 Z" fill="url(#mountain)" opacity="0.8"/>
  <path d="M0,710 L180,620 L360,700 L560,610 L760,710 L980,620 L1220,715 L1420,640 L1600,720 L1600,1000 L0,1000 Z" fill="#1b3368" opacity="0.86"/>

  <g fill="#1a376f">
    <rect x="300" y="610" width="1000" height="250"/>
    <rect x="380" y="470" width="130" height="390"/>
    <rect x="550" y="420" width="130" height="440"/>
    <rect x="730" y="360" width="170" height="500"/>
    <rect x="950" y="430" width="130" height="430"/>
    <rect x="1120" y="500" width="120" height="360"/>

    <polygon points="380,470 445,390 510,470"/>
    <polygon points="550,420 615,330 680,420"/>
    <polygon points="730,360 815,250 900,360"/>
    <polygon points="950,430 1015,350 1080,430"/>
    <polygon points="1120,500 1180,430 1240,500"/>
  </g>

  <g fill="none" stroke="#2f569b" stroke-opacity="0.65">
    <rect x="300" y="610" width="1000" height="250"/>
    <rect x="380" y="470" width="130" height="390"/>
    <rect x="550" y="420" width="130" height="440"/>
    <rect x="730" y="360" width="170" height="500"/>
    <rect x="950" y="430" width="130" height="430"/>
    <rect x="1120" y="500" width="120" height="360"/>
  </g>

  <g fill="#ffd98e" opacity="0.96">
    <rect x="415" y="570" width="20" height="34" rx="3"/>
    <rect x="450" y="570" width="20" height="34" rx="3"/>
    <rect x="585" y="535" width="20" height="34" rx="3"/>
    <rect x="620" y="535" width="20" height="34" rx="3"/>
    <rect x="765" y="500" width="24" height="42" rx="4"/>
    <rect x="808" y="500" width="24" height="42" rx="4"/>
    <rect x="851" y="500" width="24" height="42" rx="4"/>
    <rect x="985" y="550" width="20" height="34" rx="3"/>
    <rect x="1020" y="550" width="20" height="34" rx="3"/>
    <rect x="1154" y="600" width="20" height="34" rx="3"/>
    <rect x="1186" y="600" width="20" height="34" rx="3"/>

    <rect x="720" y="700" width="160" height="160" rx="80" fill="#ffcc7a" opacity="0.78"/>
  </g>

  <path d="M0,820 C240,760 460,850 700,810 C960,770 1240,860 1600,810 L1600,1000 L0,1000 Z" fill="url(#ground)"/>

  <g fill="#d4ff92" opacity="0.8">
    <circle cx="220" cy="408" r="4"/>
    <circle cx="310" cy="356" r="3.8"/>
    <circle cx="490" cy="398" r="4.2"/>
    <circle cx="640" cy="338" r="3.6"/>
    <circle cx="820" cy="390" r="4"/>
    <circle cx="980" cy="346" r="3.6"/>
    <circle cx="1145" cy="404" r="4.4"/>
    <circle cx="1320" cy="364" r="3.9"/>
    <circle cx="1460" cy="420" r="4.1"/>
  </g>
</svg>
